<svg width="34" height="42" viewBox="0 0 34 42" fill="none" xmlns="http://www.w3.org/2000/svg">
<g id="Group 1">
<path id="Polygon 56" d="M5.03286 4.44934C5.41776 3.78267 6.38001 3.78267 6.76491 4.44934L10.1414 10.2977C10.5263 10.9643 10.0452 11.7977 9.27541 11.7977H2.52235C1.75255 11.7977 1.27143 10.9643 1.65633 10.2977L5.03286 4.44934Z" fill="#D8C3AF"/>
<path id="Polygon 57" d="M5.03286 22.6179C5.41776 21.9513 6.38001 21.9513 6.76491 22.6179L10.1414 28.4662C10.5263 29.1329 10.0452 29.9662 9.27541 29.9662H2.52235C1.75255 29.9662 1.27143 29.1329 1.65633 28.4662L5.03286 22.6179Z" fill="#D8C3AF"/>
<path id="Polygon 58" d="M5.03286 19.3821C5.41776 20.0487 6.38001 20.0487 6.76491 19.3821L10.1414 13.5338C10.5263 12.8671 10.0452 12.0338 9.27541 12.0338H2.52235C1.75255 12.0338 1.27143 12.8671 1.65633 13.5338L5.03286 19.3821Z" fill="#D8C3AF"/>
<path id="Polygon 59" d="M5.03286 37.5505C5.41776 38.2172 6.38001 38.2172 6.76491 37.5505L10.1414 31.7022C10.5263 31.0355 10.0452 30.2022 9.27541 30.2022H2.52235C1.75255 30.2022 1.27143 31.0355 1.65633 31.7022L5.03286 37.5505Z" fill="#D8C3AF"/>
<path id="Polygon 60" d="M15.6509 4.44934C16.0358 3.78267 16.998 3.78267 17.3829 4.44934L20.7595 10.2977C21.1444 10.9643 20.6633 11.7977 19.8935 11.7977H13.1404C12.3706 11.7977 11.8895 10.9643 12.2744 10.2977L15.6509 4.44934Z" fill="#865300"/>
<path id="Polygon 61" d="M15.6509 22.6179C16.0358 21.9513 16.998 21.9513 17.3829 22.6179L20.7595 28.4662C21.1444 29.1329 20.6633 29.9662 19.8935 29.9662H13.1404C12.3706 29.9662 11.8895 29.1329 12.2744 28.4662L15.6509 22.6179Z" fill="#865300"/>
<path id="Polygon 62" d="M26.2688 4.44934C26.6537 3.78267 27.616 3.78267 28.0009 4.44934L31.3774 10.2977C31.7623 10.9643 31.2812 11.7977 30.5114 11.7977H23.7583C22.9885 11.7977 22.5074 10.9643 22.8923 10.2977L26.2688 4.44934Z" fill="#865300"/>
<path id="Polygon 63" d="M26.2688 22.6179C26.6537 21.9513 27.616 21.9513 28.0009 22.6179L31.3774 28.4662C31.7623 29.1329 31.2812 29.9662 30.5114 29.9662H23.7583C22.9885 29.9662 22.5074 29.1329 22.8923 28.4662L26.2688 22.6179Z" fill="#D8C3AF"/>
<path id="Polygon 64" d="M15.6509 19.3821C16.0358 20.0487 16.998 20.0487 17.3829 19.3821L20.7595 13.5338C21.1444 12.8671 20.6633 12.0338 19.8935 12.0338H13.1404C12.3706 12.0338 11.8895 12.8671 12.2744 13.5338L15.6509 19.3821Z" fill="#865300"/>
<path id="Polygon 65" d="M15.6509 37.5505C16.0358 38.2172 16.998 38.2172 17.3829 37.5505L20.7595 31.7022C21.1444 31.0355 20.6633 30.2022 19.8935 30.2022H13.1404C12.3706 30.2022 11.8895 31.0355 12.2744 31.7022L15.6509 37.5505Z" fill="#865300"/>
<path id="Polygon 66" d="M26.2688 19.3821C26.6537 20.0487 27.616 20.0487 28.0009 19.3821L31.3774 13.5338C31.7623 12.8671 31.2812 12.0338 30.5114 12.0338H23.7583C22.9885 12.0338 22.5074 12.8671 22.8923 13.5338L26.2688 19.3821Z" fill="#D8C3AF"/>
<path id="Polygon 67" d="M26.2688 37.5505C26.6537 38.2172 27.616 38.2172 28.0009 37.5505L31.3774 31.7022C31.7623 31.0355 31.2812 30.2022 30.5114 30.2022H23.7583C22.9885 30.2022 22.5074 31.0355 22.8923 31.7022L26.2688 37.5505Z" fill="#865300"/>
<path id="Polygon 68" d="M12.0738 10.2978C11.6889 10.9645 10.7267 10.9645 10.3418 10.2978L6.96525 4.44947C6.58035 3.7828 7.06148 2.94947 7.83128 2.94947L14.5843 2.94947C15.3541 2.94947 15.8353 3.7828 15.4504 4.44947L12.0738 10.2978Z" fill="#865300"/>
<path id="Polygon 69" d="M12.0738 28.4662C11.6889 29.1329 10.7267 29.1329 10.3418 28.4662L6.96525 22.6179C6.58035 21.9512 7.06148 21.1179 7.83128 21.1179L14.5843 21.1179C15.3541 21.1179 15.8353 21.9512 15.4504 22.6179L12.0738 28.4662Z" fill="#D8C3AF"/>
<path id="Polygon 70" d="M22.6919 10.2978C22.307 10.9645 21.3447 10.9645 20.9598 10.2978L17.5833 4.44947C17.1984 3.7828 17.6795 2.94947 18.4493 2.94947L25.2024 2.94947C25.9722 2.94947 26.4533 3.7828 26.0684 4.44947L22.6919 10.2978Z" fill="#865300"/>
<path id="Polygon 71" d="M22.6919 28.4662C22.307 29.1329 21.3447 29.1329 20.9598 28.4662L17.5833 22.6179C17.1984 21.9512 17.6795 21.1179 18.4493 21.1179L25.2024 21.1179C25.9722 21.1179 26.4533 21.9512 26.0684 22.6179L22.6919 28.4662Z" fill="#865300"/>
<path id="Polygon 72" d="M12.0738 13.5336C11.6889 12.867 10.7267 12.867 10.3418 13.5336L6.96525 19.382C6.58035 20.0486 7.06148 20.882 7.83128 20.882L14.5843 20.882C15.3541 20.882 15.8353 20.0486 15.4504 19.382L12.0738 13.5336Z" fill="#D8C3AF"/>
<path id="Polygon 73" d="M12.0738 31.7022C11.6889 31.0355 10.7267 31.0355 10.3418 31.7022L6.96525 37.5505C6.58035 38.2172 7.06148 39.0505 7.83128 39.0505L14.5843 39.0505C15.3541 39.0505 15.8353 38.2172 15.4504 37.5505L12.0738 31.7022Z" fill="#865300"/>
<path id="Polygon 74" d="M22.6919 13.5336C22.307 12.867 21.3447 12.867 20.9598 13.5336L17.5833 19.382C17.1984 20.0486 17.6795 20.882 18.4493 20.882L25.2024 20.882C25.9722 20.882 26.4533 20.0486 26.0684 19.382L22.6919 13.5336Z" fill="#865300"/>
<path id="Polygon 75" d="M22.6919 31.7022C22.307 31.0355 21.3447 31.0355 20.9598 31.7022L17.5833 37.5505C17.1984 38.2172 17.6795 39.0505 18.4493 39.0505L25.2024 39.0505C25.9722 39.0505 26.4533 38.2172 26.0684 37.5505L22.6919 31.7022Z" fill="#865300"/>
</g>
</svg>
